<?xml version="1.0" encoding="iso-8859-1"?>
<!-- Uploaded to: SVG Repo, www.svgrepo.com, Generator: SVG Repo Mixer Tools -->
<svg height="800px" width="800px" version="1.1" id="Layer_1" xmlns="http://www.w3.org/2000/svg" xmlns:xlink="http://www.w3.org/1999/xlink" 
	 viewBox="0 0 511.999 511.999" xml:space="preserve">
<path style="fill:#FF6342;" d="M290.18,490.29c-11.917,0-23.117-4.634-31.532-13.049L106.537,325.129
	c-50.899-50.902-50.899-133.722,0-184.622c24.658-24.658,57.441-38.238,92.312-38.238c34.41,0,66.788,13.224,91.332,37.268
	c24.546-24.043,56.924-37.268,91.333-37.268c34.871,0,67.654,13.58,92.311,38.238c50.899,50.902,50.899,133.723,0,184.625
	l-152.11,152.106C313.299,485.655,302.098,490.29,290.18,490.29z"/>
<path style="fill:#FE5025;" d="M286.406,477.241L134.296,325.129c-50.899-50.902-50.899-133.722,0-184.624
	c21.355-21.355,48.808-34.394,78.429-37.504c-4.579-0.481-9.208-0.733-13.877-0.733c-34.872,0-67.655,13.58-92.312,38.237
	c-50.899,50.902-50.899,133.722,0,184.624l152.111,152.112c8.416,8.414,19.615,13.049,31.532,13.049
	c4.789,0,9.457-0.761,13.881-2.201C297.476,485.943,291.441,482.274,286.406,477.241z"/>
<path style="fill:#FF9379;" d="M428.348,205.254c-14.159,0-25.68-11.519-25.68-25.68c0-14.16,11.519-25.68,25.68-25.68
	s25.68,11.519,25.68,25.68C454.027,193.734,442.507,205.254,428.348,205.254z"/>
<path style="fill:#FF7856;" d="M428.348,179.575c0-9.484,5.172-17.777,12.839-22.224c-3.78-2.192-8.164-3.454-12.839-3.454
	c-14.159,0-25.68,11.519-25.68,25.68s11.519,25.68,25.68,25.68c4.676,0,9.059-1.262,12.839-3.454
	C433.52,197.352,428.348,189.059,428.348,179.575z"/>
<path style="fill:#FF9379;" d="M290.325,397.834c-14.006,0-27.31-5.424-37.464-15.277l-75.068-72.842
	c-8.799-8.973-13.682-20.839-13.75-33.411c-0.065-12.059,4.338-23.607,12.399-32.517c9.246-10.22,21.955-15.85,35.783-15.85
	c12.952,0,25.103,5.018,34.212,14.127l44.009,44.009l44.009-44.009c9.11-9.111,21.176-14.129,33.975-14.129
	c12.758,0,24.779,4.995,33.849,14.064c18.596,18.596,18.734,48.989,0.308,67.752l-74.741,72.745
	C317.687,392.388,304.361,397.834,290.325,397.834z"/>
<path style="fill:#FF7856;" d="M281.108,382.557l-75.068-72.842c-8.799-8.973-13.682-20.839-13.75-33.411
	c-0.065-12.059,4.338-23.607,12.399-32.517c5.982-6.612,13.42-11.29,21.666-13.777c-4.518-1.365-9.267-2.073-14.129-2.073
	c-13.829,0-26.537,5.628-35.783,15.85c-8.062,8.909-12.465,20.457-12.399,32.517c0.069,12.571,4.952,24.438,13.75,33.411
	l75.068,72.842c10.152,9.851,23.457,15.277,37.464,15.277c4.827,0,9.565-0.658,14.124-1.906
	C295.777,393.555,287.763,389.014,281.108,382.557z"/>
<path style="fill:#FF6342;" d="M45.645,113C20.476,113,0,92.524,0,67.355S20.476,21.71,45.645,21.71S91.29,42.186,91.29,67.355
	S70.814,113,45.645,113z"/>
<path style="fill:#FE5025;" d="M25.979,67.355c0-20.656,13.796-38.141,32.656-43.752c-4.119-1.225-8.478-1.893-12.989-1.893
	c-25.169,0-45.645,20.476-45.645,45.645S20.477,113,45.646,113c4.513,0,8.87-0.668,12.989-1.893
	C39.775,105.496,25.979,88.011,25.979,67.355z"/>
</svg>