<svg width="366" height="331" viewBox="0 0 366 331" fill="none" xmlns="http://www.w3.org/2000/svg">
<rect x="365.981" y="56.5354" width="51.9676" height="53.0069" transform="rotate(90 365.981 56.5354)" fill="#C9C2DD"/>
<path fill-rule="evenodd" clip-rule="evenodd" d="M51.9676 83.1477H0V136V136.155V189.007H51.9676V136.155V136V83.1477Z" fill="#745AE2"/>
<rect opacity="0.8" x="208.485" y="194.114" width="53.0069" height="53.0069" transform="rotate(-90 208.485 194.114)" fill="#745AE2"/>
<rect opacity="0.6" x="159.043" y="135.264" width="53.0069" height="53.0069" transform="rotate(180 159.043 135.264)" fill="#745AE2"/>
<rect opacity="0.6" x="106.036" y="82.2566" width="54.0463" height="53.0069" transform="rotate(180 106.036 82.2566)" fill="#745AE2"/>
<path d="M202.284 61.3215L176.631 15.3302L227.937 15.3302L202.284 61.3215Z" fill="#745AE2"/>
<path opacity="0.4" d="M49.5767 296.956L23.9237 250.965L75.2297 250.965L49.5767 296.956Z" fill="#745AE2"/>
<path d="M133.602 330.063L107.949 315.252L107.949 285.63L133.602 270.82L159.255 285.63L159.255 315.252L133.602 330.063Z" fill="#C9C2DD"/>
</svg>
